<svg viewBox="0 0 69 60" fill="none" xmlns="http://www.w3.org/2000/svg">
<mask id="path-1-outside-1_38_569" maskUnits="userSpaceOnUse" x="-0.120422" y="-0.618805" width="69" height="61" fill="black">
<rect fill="white" x="-0.120422" y="-0.618805" width="69" height="61"/>
<path d="M35.8194 1.40901C35.5403 1.47359 32.8151 2.97065 27.341 6.06459C26.201 6.71625 24.687 7.56752 23.9864 7.96086C19.1357 10.6791 18.3342 11.1957 18.162 11.73C18.1205 11.8474 18.0789 12.3699 18.067 12.8865C18.0433 13.7495 18.0492 13.8552 18.1739 14.1781C18.3401 14.6243 18.7142 14.9941 19.676 15.6693C20.2638 16.0802 22.6387 17.6125 23.9449 18.4286C25.3461 19.2975 26.7591 20.1957 26.9373 20.3366C27.0501 20.4305 27.2222 20.6243 27.3172 20.7711L27.4894 21.0411V26.1429C27.4894 31.8082 27.5191 31.4266 27.0857 31.8317C26.8779 32.0255 26.0348 32.5538 24.8177 33.2407C24.5089 33.4168 23.3215 34.1037 22.1756 34.7671C21.0356 35.4305 19.1357 36.5108 17.9602 37.1742C14.8194 38.9531 11.5242 40.8552 9.21461 42.229C8.08653 42.9041 7.11283 43.4442 7.03564 43.4442C6.95846 43.4442 6.81596 43.3797 6.72691 43.3033L6.56066 43.1624L6.57847 32.2192C6.59035 21.957 6.60816 20.501 6.68534 20.2368C6.72097 20.1253 7.00002 19.9609 7.16626 19.9609C7.22563 19.9609 7.40969 20.0607 7.56999 20.184C7.73624 20.3014 8.21715 20.6478 8.6387 20.953C9.06618 21.2583 9.93301 21.9041 10.5683 22.3914C11.8448 23.3718 12.1298 23.5656 12.7235 23.8415C13.0976 24.0118 13.1688 24.0235 13.5844 24C14.3978 23.953 14.9856 23.6008 15.2706 22.9844L15.4071 22.6908L15.4428 17.6125C15.4665 14.6595 15.4606 12.364 15.4309 12.1292C15.3596 11.5949 15.2053 11.272 14.8728 10.955C14.4928 10.5851 14.0653 10.4384 13.3885 10.4325C12.7829 10.4266 12.5276 10.5206 12.1892 10.8728C11.7795 11.2955 11.7914 11.1898 11.7557 14.7241L11.7261 17.9178L11.5598 18.0587C11.4708 18.135 11.3401 18.1996 11.2808 18.1996C11.2155 18.1996 10.7998 17.9413 10.3486 17.6243C9.89739 17.3073 9.06024 16.7378 8.49026 16.3503C7.92029 15.9687 7.13657 15.4345 6.75659 15.1644C5.85413 14.5245 5.26635 14.2485 4.81512 14.2427C4.11452 14.2309 3.30112 14.8239 3.02801 15.546L2.89739 15.8806L2.88551 34.4971L2.87958 53.1135L3.05769 53.4012C3.25956 53.7241 3.62173 53.9883 4.41138 54.3934C5.05261 54.7163 5.34947 54.7397 6.0085 54.5049C6.59629 54.2936 6.88721 54.1468 9.82614 52.5558C11.2333 51.7985 12.9669 50.8591 13.6853 50.4716C17.782 48.2642 23.3987 45.1233 25.2867 43.9902C26.6107 43.1977 26.9076 42.9628 27.0441 42.5988C27.1451 42.3229 27.2519 40.0509 27.2519 38.1429C27.2519 37.2505 27.2697 36.9452 27.335 36.8219C27.4954 36.5284 27.8753 36.2407 28.7719 35.7358C30.4165 34.82 30.8321 34.503 31.0755 33.9922L31.2002 33.728V26.3014C31.2002 20.4305 31.1824 18.8278 31.123 18.6576C30.9211 18.0998 30.7549 17.9707 28.5581 16.7026C26.0348 15.2525 23.5352 13.7554 23.3512 13.5851C22.9415 13.2035 23.1255 12.8748 24.0577 12.3523C24.3961 12.1644 24.8355 11.912 25.0373 11.7945C25.2392 11.6712 25.916 11.2838 26.5513 10.9315C27.1807 10.5793 29.4962 9.27006 31.6989 8.01957C33.8957 6.77496 35.7837 5.74169 35.8965 5.7182C36.2587 5.65362 36.4784 5.74756 37.5827 6.45793C41.4122 8.90607 41.2816 8.82388 44.2918 10.6262C48.9347 13.4031 48.9466 13.409 49.0475 13.6615C49.1069 13.82 49.0238 14.0724 48.8753 14.1898C48.6022 14.4012 45.6158 16.0098 43.8465 16.9022C41.3885 18.1468 41.0263 18.4932 40.9016 19.6967C40.866 20.0548 40.8482 22.8024 40.8601 26.7711L40.8779 33.2583L41.0204 33.5988C41.2875 34.2388 41.8456 34.6908 42.6828 34.9609C43.425 35.2016 43.7574 35.0607 47.9729 32.6713C49.4928 31.8082 52.1883 30.2877 53.9695 29.2838C57.5378 27.2759 60.542 25.5793 61.5276 25.0098C62.2282 24.6106 62.341 24.593 62.6141 24.863L62.7566 25.0039V34.0098C62.7566 38.9648 62.7388 44.0078 62.715 45.229C62.6794 47.4129 62.6735 47.4423 62.5428 47.5832C62.246 47.9002 60.3045 46.6262 60.3045 46.6262C60.3045 46.6262 56.4631 44.137 54.5513 42.9217C54.017 42.5812 52.8889 41.8532 52.0399 41.3014C51.1909 40.7495 50.1993 40.1155 49.8312 39.8865C49.4631 39.6634 48.6378 39.1409 47.9907 38.73C46.0255 37.4736 45.4377 37.2388 44.9271 37.4912C44.5946 37.6615 44.0068 38.1546 43.7871 38.4482C43.4071 38.9707 43.425 38.7417 43.3775 43.8846C43.33 49.092 43.3596 48.775 42.9262 49.1624C42.7125 49.3503 40.8244 50.4834 38.9483 51.546C37.9093 52.1331 36.5199 52.955 35.7125 53.4599C35.38 53.6595 35.0416 53.8474 34.9525 53.865C34.5785 53.9589 34.3054 53.818 32.2095 52.4853C31.2833 51.8924 30.0009 51.094 27.1035 49.2857C26.3198 48.7985 25.4767 48.2642 25.2333 48.1057C24.2417 47.4364 23.9093 47.366 23.2918 47.6713C22.5259 48.0529 21.9678 48.8278 21.9678 49.5147C21.9678 49.9315 22.2231 50.454 22.5793 50.7534C23.2087 51.2877 25.5242 52.8024 29.8346 55.5088C32.6904 57.2994 34.1807 58.1801 34.3707 58.1918C34.7091 58.2094 34.8931 58.1624 35.3444 57.9394C35.95 57.6341 38.3011 56.3484 39.8389 55.4795C40.5098 55.1037 41.8041 54.3875 42.7184 53.8943C44.553 52.9022 46.1383 51.9804 46.4173 51.7515C46.5183 51.6693 46.6726 51.4579 46.7557 51.2818C46.8982 50.9941 46.922 50.865 46.9695 50.0078C46.9932 49.4795 47.017 47.7534 47.0229 46.1624V43.2799L47.207 43.1272C47.3079 43.045 47.4504 42.9746 47.5216 42.9746C47.5988 42.9746 48.246 43.3679 48.9881 43.8669C50.1875 44.6713 53.1739 46.6086 55.9288 48.3699C59.4614 50.6243 60.7201 51.4403 61.7769 52.1566C63.76 53.501 64.4131 53.7417 65.1493 53.4071C65.6183 53.1957 66.0458 52.7848 66.2774 52.3151L66.4674 51.9276L66.503 42.8278C66.5208 37.8258 66.5505 29.3131 66.5624 23.9237L66.5861 14.1194L66.4377 13.8258C66.1467 13.227 65.2799 12.593 64.6743 12.5284C64.4131 12.499 64.324 12.5284 63.6769 12.8454C62.9169 13.2153 60.4233 14.5714 58.1255 15.8513C57.3596 16.2799 56.3028 16.8669 55.7803 17.1605C55.2579 17.4482 54.2485 18.0118 53.5361 18.4168C52.8236 18.8161 51.743 19.4149 51.1315 19.7495C49.5522 20.6125 48.3054 21.3053 46.8804 22.1272C45.123 23.1429 45.123 23.1429 44.9093 23.0372C44.5649 22.8669 44.5293 22.773 44.5293 22.0039C44.5293 21.2231 44.5649 21.1116 44.9271 20.7769C45.1349 20.5832 46.5895 19.7495 49.6947 18.0529C52.1052 16.7319 53.7023 15.7574 54.0407 15.4051C54.3495 15.0822 54.4445 14.7476 54.486 13.8963C54.5573 12.3699 54.6166 12.4286 50.7337 10.0685C49.6412 9.40509 47.6344 8.16635 45.5386 6.85715C43.7099 5.72407 42.1544 4.76713 41.7685 4.54991C41.6082 4.45597 41.1272 4.16243 40.6998 3.89824C39.3461 3.05871 37.6896 2.08415 37.0484 1.74952C36.3953 1.40314 36.134 1.33269 35.8194 1.40901ZM62.5725 18.1761L62.7566 18.3288V19.0157C62.7566 19.6615 62.7447 19.726 62.6022 19.9315C62.3825 20.2544 62.2875 20.319 61.302 20.818C60.8151 21.0705 59.4911 21.7926 58.363 22.4266C56.3325 23.5714 52.313 25.8024 50.7634 26.6419C49.849 27.135 49.4037 27.3934 47.4088 28.5617C45.2358 29.8298 45.1171 29.8943 44.9568 29.8532C44.8796 29.8356 44.749 29.7476 44.6658 29.6595C44.5174 29.501 44.5174 29.4951 44.559 28.7671C44.6124 27.7339 44.6718 27.6634 45.7761 27.0646C46.1501 26.8591 47.6107 26.0548 49.0119 25.274C53.5242 22.7613 60.6726 18.7926 61.6285 18.2701C62.151 17.9883 62.3232 17.9707 62.5725 18.1761ZM23.6243 38.7241L23.8083 38.8767V39.5401V40.1977L23.5768 40.4853C23.3096 40.82 22.7159 41.1664 15.229 45.3816C12.7473 46.7789 10.408 48.094 10.0339 48.3053C8.21121 49.3327 7.2197 49.8435 7.11283 49.8082C7.05345 49.7906 6.92283 49.7084 6.82784 49.6262C6.64972 49.4795 6.64972 49.4736 6.64972 48.8806C6.64972 48.2818 6.64972 48.2759 6.85752 48.0059C7.0772 47.7182 7.16626 47.6654 9.51741 46.3268C10.2417 45.9159 11.3995 45.2525 12.0823 44.8532C13.1926 44.2075 15.4784 42.9041 19.2663 40.7554C22.3062 39.0352 23.1374 38.5832 23.2859 38.5773C23.3749 38.5714 23.5233 38.636 23.6243 38.7241Z"/>
</mask>
<path d="M35.8194 1.40901C35.5403 1.47359 32.8151 2.97065 27.341 6.06459C26.201 6.71625 24.687 7.56752 23.9864 7.96086C19.1357 10.6791 18.3342 11.1957 18.162 11.73C18.1205 11.8474 18.0789 12.3699 18.067 12.8865C18.0433 13.7495 18.0492 13.8552 18.1739 14.1781C18.3401 14.6243 18.7142 14.9941 19.676 15.6693C20.2638 16.0802 22.6387 17.6125 23.9449 18.4286C25.3461 19.2975 26.7591 20.1957 26.9373 20.3366C27.0501 20.4305 27.2222 20.6243 27.3172 20.7711L27.4894 21.0411V26.1429C27.4894 31.8082 27.5191 31.4266 27.0857 31.8317C26.8779 32.0255 26.0348 32.5538 24.8177 33.2407C24.5089 33.4168 23.3215 34.1037 22.1756 34.7671C21.0356 35.4305 19.1357 36.5108 17.9602 37.1742C14.8194 38.9531 11.5242 40.8552 9.21461 42.229C8.08653 42.9041 7.11283 43.4442 7.03564 43.4442C6.95846 43.4442 6.81596 43.3797 6.72691 43.3033L6.56066 43.1624L6.57847 32.2192C6.59035 21.957 6.60816 20.501 6.68534 20.2368C6.72097 20.1253 7.00002 19.9609 7.16626 19.9609C7.22563 19.9609 7.40969 20.0607 7.56999 20.184C7.73624 20.3014 8.21715 20.6478 8.6387 20.953C9.06618 21.2583 9.93301 21.9041 10.5683 22.3914C11.8448 23.3718 12.1298 23.5656 12.7235 23.8415C13.0976 24.0118 13.1688 24.0235 13.5844 24C14.3978 23.953 14.9856 23.6008 15.2706 22.9844L15.4071 22.6908L15.4428 17.6125C15.4665 14.6595 15.4606 12.364 15.4309 12.1292C15.3596 11.5949 15.2053 11.272 14.8728 10.955C14.4928 10.5851 14.0653 10.4384 13.3885 10.4325C12.7829 10.4266 12.5276 10.5206 12.1892 10.8728C11.7795 11.2955 11.7914 11.1898 11.7557 14.7241L11.7261 17.9178L11.5598 18.0587C11.4708 18.135 11.3401 18.1996 11.2808 18.1996C11.2155 18.1996 10.7998 17.9413 10.3486 17.6243C9.89739 17.3073 9.06024 16.7378 8.49026 16.3503C7.92029 15.9687 7.13657 15.4345 6.75659 15.1644C5.85413 14.5245 5.26635 14.2485 4.81512 14.2427C4.11452 14.2309 3.30112 14.8239 3.02801 15.546L2.89739 15.8806L2.88551 34.4971L2.87958 53.1135L3.05769 53.4012C3.25956 53.7241 3.62173 53.9883 4.41138 54.3934C5.05261 54.7163 5.34947 54.7397 6.0085 54.5049C6.59629 54.2936 6.88721 54.1468 9.82614 52.5558C11.2333 51.7985 12.9669 50.8591 13.6853 50.4716C17.782 48.2642 23.3987 45.1233 25.2867 43.9902C26.6107 43.1977 26.9076 42.9628 27.0441 42.5988C27.1451 42.3229 27.2519 40.0509 27.2519 38.1429C27.2519 37.2505 27.2697 36.9452 27.335 36.8219C27.4954 36.5284 27.8753 36.2407 28.7719 35.7358C30.4165 34.82 30.8321 34.503 31.0755 33.9922L31.2002 33.728V26.3014C31.2002 20.4305 31.1824 18.8278 31.123 18.6576C30.9211 18.0998 30.7549 17.9707 28.5581 16.7026C26.0348 15.2525 23.5352 13.7554 23.3512 13.5851C22.9415 13.2035 23.1255 12.8748 24.0577 12.3523C24.3961 12.1644 24.8355 11.912 25.0373 11.7945C25.2392 11.6712 25.916 11.2838 26.5513 10.9315C27.1807 10.5793 29.4962 9.27006 31.6989 8.01957C33.8957 6.77496 35.7837 5.74169 35.8965 5.7182C36.2587 5.65362 36.4784 5.74756 37.5827 6.45793C41.4122 8.90607 41.2816 8.82388 44.2918 10.6262C48.9347 13.4031 48.9466 13.409 49.0475 13.6615C49.1069 13.82 49.0238 14.0724 48.8753 14.1898C48.6022 14.4012 45.6158 16.0098 43.8465 16.9022C41.3885 18.1468 41.0263 18.4932 40.9016 19.6967C40.866 20.0548 40.8482 22.8024 40.8601 26.7711L40.8779 33.2583L41.0204 33.5988C41.2875 34.2388 41.8456 34.6908 42.6828 34.9609C43.425 35.2016 43.7574 35.0607 47.9729 32.6713C49.4928 31.8082 52.1883 30.2877 53.9695 29.2838C57.5378 27.2759 60.542 25.5793 61.5276 25.0098C62.2282 24.6106 62.341 24.593 62.6141 24.863L62.7566 25.0039V34.0098C62.7566 38.9648 62.7388 44.0078 62.715 45.229C62.6794 47.4129 62.6735 47.4423 62.5428 47.5832C62.246 47.9002 60.3045 46.6262 60.3045 46.6262C60.3045 46.6262 56.4631 44.137 54.5513 42.9217C54.017 42.5812 52.8889 41.8532 52.0399 41.3014C51.1909 40.7495 50.1993 40.1155 49.8312 39.8865C49.4631 39.6634 48.6378 39.1409 47.9907 38.73C46.0255 37.4736 45.4377 37.2388 44.9271 37.4912C44.5946 37.6615 44.0068 38.1546 43.7871 38.4482C43.4071 38.9707 43.425 38.7417 43.3775 43.8846C43.33 49.092 43.3596 48.775 42.9262 49.1624C42.7125 49.3503 40.8244 50.4834 38.9483 51.546C37.9093 52.1331 36.5199 52.955 35.7125 53.4599C35.38 53.6595 35.0416 53.8474 34.9525 53.865C34.5785 53.9589 34.3054 53.818 32.2095 52.4853C31.2833 51.8924 30.0009 51.094 27.1035 49.2857C26.3198 48.7985 25.4767 48.2642 25.2333 48.1057C24.2417 47.4364 23.9093 47.366 23.2918 47.6713C22.5259 48.0529 21.9678 48.8278 21.9678 49.5147C21.9678 49.9315 22.2231 50.454 22.5793 50.7534C23.2087 51.2877 25.5242 52.8024 29.8346 55.5088C32.6904 57.2994 34.1807 58.1801 34.3707 58.1918C34.7091 58.2094 34.8931 58.1624 35.3444 57.9394C35.95 57.6341 38.3011 56.3484 39.8389 55.4795C40.5098 55.1037 41.8041 54.3875 42.7184 53.8943C44.553 52.9022 46.1383 51.9804 46.4173 51.7515C46.5183 51.6693 46.6726 51.4579 46.7557 51.2818C46.8982 50.9941 46.922 50.865 46.9695 50.0078C46.9932 49.4795 47.017 47.7534 47.0229 46.1624V43.2799L47.207 43.1272C47.3079 43.045 47.4504 42.9746 47.5216 42.9746C47.5988 42.9746 48.246 43.3679 48.9881 43.8669C50.1875 44.6713 53.1739 46.6086 55.9288 48.3699C59.4614 50.6243 60.7201 51.4403 61.7769 52.1566C63.76 53.501 64.4131 53.7417 65.1493 53.4071C65.6183 53.1957 66.0458 52.7848 66.2774 52.3151L66.4674 51.9276L66.503 42.8278C66.5208 37.8258 66.5505 29.3131 66.5624 23.9237L66.5861 14.1194L66.4377 13.8258C66.1467 13.227 65.2799 12.593 64.6743 12.5284C64.4131 12.499 64.324 12.5284 63.6769 12.8454C62.9169 13.2153 60.4233 14.5714 58.1255 15.8513C57.3596 16.2799 56.3028 16.8669 55.7803 17.1605C55.2579 17.4482 54.2485 18.0118 53.5361 18.4168C52.8236 18.8161 51.743 19.4149 51.1315 19.7495C49.5522 20.6125 48.3054 21.3053 46.8804 22.1272C45.123 23.1429 45.123 23.1429 44.9093 23.0372C44.5649 22.8669 44.5293 22.773 44.5293 22.0039C44.5293 21.2231 44.5649 21.1116 44.9271 20.7769C45.1349 20.5832 46.5895 19.7495 49.6947 18.0529C52.1052 16.7319 53.7023 15.7574 54.0407 15.4051C54.3495 15.0822 54.4445 14.7476 54.486 13.8963C54.5573 12.3699 54.6166 12.4286 50.7337 10.0685C49.6412 9.40509 47.6344 8.16635 45.5386 6.85715C43.7099 5.72407 42.1544 4.76713 41.7685 4.54991C41.6082 4.45597 41.1272 4.16243 40.6998 3.89824C39.3461 3.05871 37.6896 2.08415 37.0484 1.74952C36.3953 1.40314 36.134 1.33269 35.8194 1.40901ZM62.5725 18.1761L62.7566 18.3288V19.0157C62.7566 19.6615 62.7447 19.726 62.6022 19.9315C62.3825 20.2544 62.2875 20.319 61.302 20.818C60.8151 21.0705 59.4911 21.7926 58.363 22.4266C56.3325 23.5714 52.313 25.8024 50.7634 26.6419C49.849 27.135 49.4037 27.3934 47.4088 28.5617C45.2358 29.8298 45.1171 29.8943 44.9568 29.8532C44.8796 29.8356 44.749 29.7476 44.6658 29.6595C44.5174 29.501 44.5174 29.4951 44.559 28.7671C44.6124 27.7339 44.6718 27.6634 45.7761 27.0646C46.1501 26.8591 47.6107 26.0548 49.0119 25.274C53.5242 22.7613 60.6726 18.7926 61.6285 18.2701C62.151 17.9883 62.3232 17.9707 62.5725 18.1761ZM23.6243 38.7241L23.8083 38.8767V39.5401V40.1977L23.5768 40.4853C23.3096 40.82 22.7159 41.1664 15.229 45.3816C12.7473 46.7789 10.408 48.094 10.0339 48.3053C8.21121 49.3327 7.2197 49.8435 7.11283 49.8082C7.05345 49.7906 6.92283 49.7084 6.82784 49.6262C6.64972 49.4795 6.64972 49.4736 6.64972 48.8806C6.64972 48.2818 6.64972 48.2759 6.85752 48.0059C7.0772 47.7182 7.16626 47.6654 9.51741 46.3268C10.2417 45.9159 11.3995 45.2525 12.0823 44.8532C13.1926 44.2075 15.4784 42.9041 19.2663 40.7554C22.3062 39.0352 23.1374 38.5832 23.2859 38.5773C23.3749 38.5714 23.5233 38.636 23.6243 38.7241Z" fill="url(#paint0_linear_38_569)"/>
<path d="M35.8194 1.40901C35.5403 1.47359 32.8151 2.97065 27.341 6.06459C26.201 6.71625 24.687 7.56752 23.9864 7.96086C19.1357 10.6791 18.3342 11.1957 18.162 11.73C18.1205 11.8474 18.0789 12.3699 18.067 12.8865C18.0433 13.7495 18.0492 13.8552 18.1739 14.1781C18.3401 14.6243 18.7142 14.9941 19.676 15.6693C20.2638 16.0802 22.6387 17.6125 23.9449 18.4286C25.3461 19.2975 26.7591 20.1957 26.9373 20.3366C27.0501 20.4305 27.2222 20.6243 27.3172 20.7711L27.4894 21.0411V26.1429C27.4894 31.8082 27.5191 31.4266 27.0857 31.8317C26.8779 32.0255 26.0348 32.5538 24.8177 33.2407C24.5089 33.4168 23.3215 34.1037 22.1756 34.7671C21.0356 35.4305 19.1357 36.5108 17.9602 37.1742C14.8194 38.9531 11.5242 40.8552 9.21461 42.229C8.08653 42.9041 7.11283 43.4442 7.03564 43.4442C6.95846 43.4442 6.81596 43.3797 6.72691 43.3033L6.56066 43.1624L6.57847 32.2192C6.59035 21.957 6.60816 20.501 6.68534 20.2368C6.72097 20.1253 7.00002 19.9609 7.16626 19.9609C7.22563 19.9609 7.40969 20.0607 7.56999 20.184C7.73624 20.3014 8.21715 20.6478 8.6387 20.953C9.06618 21.2583 9.93301 21.9041 10.5683 22.3914C11.8448 23.3718 12.1298 23.5656 12.7235 23.8415C13.0976 24.0118 13.1688 24.0235 13.5844 24C14.3978 23.953 14.9856 23.6008 15.2706 22.9844L15.4071 22.6908L15.4428 17.6125C15.4665 14.6595 15.4606 12.364 15.4309 12.1292C15.3596 11.5949 15.2053 11.272 14.8728 10.955C14.4928 10.5851 14.0653 10.4384 13.3885 10.4325C12.7829 10.4266 12.5276 10.5206 12.1892 10.8728C11.7795 11.2955 11.7914 11.1898 11.7557 14.7241L11.7261 17.9178L11.5598 18.0587C11.4708 18.135 11.3401 18.1996 11.2808 18.1996C11.2155 18.1996 10.7998 17.9413 10.3486 17.6243C9.89739 17.3073 9.06024 16.7378 8.49026 16.3503C7.92029 15.9687 7.13657 15.4345 6.75659 15.1644C5.85413 14.5245 5.26635 14.2485 4.81512 14.2427C4.11452 14.2309 3.30112 14.8239 3.02801 15.546L2.89739 15.8806L2.88551 34.4971L2.87958 53.1135L3.05769 53.4012C3.25956 53.7241 3.62173 53.9883 4.41138 54.3934C5.05261 54.7163 5.34947 54.7397 6.0085 54.5049C6.59629 54.2936 6.88721 54.1468 9.82614 52.5558C11.2333 51.7985 12.9669 50.8591 13.6853 50.4716C17.782 48.2642 23.3987 45.1233 25.2867 43.9902C26.6107 43.1977 26.9076 42.9628 27.0441 42.5988C27.1451 42.3229 27.2519 40.0509 27.2519 38.1429C27.2519 37.2505 27.2697 36.9452 27.335 36.8219C27.4954 36.5284 27.8753 36.2407 28.7719 35.7358C30.4165 34.82 30.8321 34.503 31.0755 33.9922L31.2002 33.728V26.3014C31.2002 20.4305 31.1824 18.8278 31.123 18.6576C30.9211 18.0998 30.7549 17.9707 28.5581 16.7026C26.0348 15.2525 23.5352 13.7554 23.3512 13.5851C22.9415 13.2035 23.1255 12.8748 24.0577 12.3523C24.3961 12.1644 24.8355 11.912 25.0373 11.7945C25.2392 11.6712 25.916 11.2838 26.5513 10.9315C27.1807 10.5793 29.4962 9.27006 31.6989 8.01957C33.8957 6.77496 35.7837 5.74169 35.8965 5.7182C36.2587 5.65362 36.4784 5.74756 37.5827 6.45793C41.4122 8.90607 41.2816 8.82388 44.2918 10.6262C48.9347 13.4031 48.9466 13.409 49.0475 13.6615C49.1069 13.82 49.0238 14.0724 48.8753 14.1898C48.6022 14.4012 45.6158 16.0098 43.8465 16.9022C41.3885 18.1468 41.0263 18.4932 40.9016 19.6967C40.866 20.0548 40.8482 22.8024 40.8601 26.7711L40.8779 33.2583L41.0204 33.5988C41.2875 34.2388 41.8456 34.6908 42.6828 34.9609C43.425 35.2016 43.7574 35.0607 47.9729 32.6713C49.4928 31.8082 52.1883 30.2877 53.9695 29.2838C57.5378 27.2759 60.542 25.5793 61.5276 25.0098C62.2282 24.6106 62.341 24.593 62.6141 24.863L62.7566 25.0039V34.0098C62.7566 38.9648 62.7388 44.0078 62.715 45.229C62.6794 47.4129 62.6735 47.4423 62.5428 47.5832C62.246 47.9002 60.3045 46.6262 60.3045 46.6262C60.3045 46.6262 56.4631 44.137 54.5513 42.9217C54.017 42.5812 52.8889 41.8532 52.0399 41.3014C51.1909 40.7495 50.1993 40.1155 49.8312 39.8865C49.4631 39.6634 48.6378 39.1409 47.9907 38.73C46.0255 37.4736 45.4377 37.2388 44.9271 37.4912C44.5946 37.6615 44.0068 38.1546 43.7871 38.4482C43.4071 38.9707 43.425 38.7417 43.3775 43.8846C43.33 49.092 43.3596 48.775 42.9262 49.1624C42.7125 49.3503 40.8244 50.4834 38.9483 51.546C37.9093 52.1331 36.5199 52.955 35.7125 53.4599C35.38 53.6595 35.0416 53.8474 34.9525 53.865C34.5785 53.9589 34.3054 53.818 32.2095 52.4853C31.2833 51.8924 30.0009 51.094 27.1035 49.2857C26.3198 48.7985 25.4767 48.2642 25.2333 48.1057C24.2417 47.4364 23.9093 47.366 23.2918 47.6713C22.5259 48.0529 21.9678 48.8278 21.9678 49.5147C21.9678 49.9315 22.2231 50.454 22.5793 50.7534C23.2087 51.2877 25.5242 52.8024 29.8346 55.5088C32.6904 57.2994 34.1807 58.1801 34.3707 58.1918C34.7091 58.2094 34.8931 58.1624 35.3444 57.9394C35.95 57.6341 38.3011 56.3484 39.8389 55.4795C40.5098 55.1037 41.8041 54.3875 42.7184 53.8943C44.553 52.9022 46.1383 51.9804 46.4173 51.7515C46.5183 51.6693 46.6726 51.4579 46.7557 51.2818C46.8982 50.9941 46.922 50.865 46.9695 50.0078C46.9932 49.4795 47.017 47.7534 47.0229 46.1624V43.2799L47.207 43.1272C47.3079 43.045 47.4504 42.9746 47.5216 42.9746C47.5988 42.9746 48.246 43.3679 48.9881 43.8669C50.1875 44.6713 53.1739 46.6086 55.9288 48.3699C59.4614 50.6243 60.7201 51.4403 61.7769 52.1566C63.76 53.501 64.4131 53.7417 65.1493 53.4071C65.6183 53.1957 66.0458 52.7848 66.2774 52.3151L66.4674 51.9276L66.503 42.8278C66.5208 37.8258 66.5505 29.3131 66.5624 23.9237L66.5861 14.1194L66.4377 13.8258C66.1467 13.227 65.2799 12.593 64.6743 12.5284C64.4131 12.499 64.324 12.5284 63.6769 12.8454C62.9169 13.2153 60.4233 14.5714 58.1255 15.8513C57.3596 16.2799 56.3028 16.8669 55.7803 17.1605C55.2579 17.4482 54.2485 18.0118 53.5361 18.4168C52.8236 18.8161 51.743 19.4149 51.1315 19.7495C49.5522 20.6125 48.3054 21.3053 46.8804 22.1272C45.123 23.1429 45.123 23.1429 44.9093 23.0372C44.5649 22.8669 44.5293 22.773 44.5293 22.0039C44.5293 21.2231 44.5649 21.1116 44.9271 20.7769C45.1349 20.5832 46.5895 19.7495 49.6947 18.0529C52.1052 16.7319 53.7023 15.7574 54.0407 15.4051C54.3495 15.0822 54.4445 14.7476 54.486 13.8963C54.5573 12.3699 54.6166 12.4286 50.7337 10.0685C49.6412 9.40509 47.6344 8.16635 45.5386 6.85715C43.7099 5.72407 42.1544 4.76713 41.7685 4.54991C41.6082 4.45597 41.1272 4.16243 40.6998 3.89824C39.3461 3.05871 37.6896 2.08415 37.0484 1.74952C36.3953 1.40314 36.134 1.33269 35.8194 1.40901ZM62.5725 18.1761L62.7566 18.3288V19.0157C62.7566 19.6615 62.7447 19.726 62.6022 19.9315C62.3825 20.2544 62.2875 20.319 61.302 20.818C60.8151 21.0705 59.4911 21.7926 58.363 22.4266C56.3325 23.5714 52.313 25.8024 50.7634 26.6419C49.849 27.135 49.4037 27.3934 47.4088 28.5617C45.2358 29.8298 45.1171 29.8943 44.9568 29.8532C44.8796 29.8356 44.749 29.7476 44.6658 29.6595C44.5174 29.501 44.5174 29.4951 44.559 28.7671C44.6124 27.7339 44.6718 27.6634 45.7761 27.0646C46.1501 26.8591 47.6107 26.0548 49.0119 25.274C53.5242 22.7613 60.6726 18.7926 61.6285 18.2701C62.151 17.9883 62.3232 17.9707 62.5725 18.1761ZM23.6243 38.7241L23.8083 38.8767V39.5401V40.1977L23.5768 40.4853C23.3096 40.82 22.7159 41.1664 15.229 45.3816C12.7473 46.7789 10.408 48.094 10.0339 48.3053C8.21121 49.3327 7.2197 49.8435 7.11283 49.8082C7.05345 49.7906 6.92283 49.7084 6.82784 49.6262C6.64972 49.4795 6.64972 49.4736 6.64972 48.8806C6.64972 48.2818 6.64972 48.2759 6.85752 48.0059C7.0772 47.7182 7.16626 47.6654 9.51741 46.3268C10.2417 45.9159 11.3995 45.2525 12.0823 44.8532C13.1926 44.2075 15.4784 42.9041 19.2663 40.7554C22.3062 39.0352 23.1374 38.5832 23.2859 38.5773C23.3749 38.5714 23.5233 38.636 23.6243 38.7241Z" stroke="url(#paint1_linear_38_569)" stroke-width="4" mask="url(#path-1-outside-1_38_569)"/>
<defs>
<linearGradient id="paint0_linear_38_569" x1="55.5" y1="45" x2="0.999996" y2="-12.5" gradientUnits="userSpaceOnUse">
<stop stop-color="white"/>
<stop offset="0.433908" stop-color="#8E6BEF" stop-opacity="0.903"/>
<stop offset="0.824871" stop-color="#1B084D" stop-opacity="0.74"/>
</linearGradient>
<linearGradient id="paint1_linear_38_569" x1="18.5" y1="7" x2="60.5" y2="50.5" gradientUnits="userSpaceOnUse">
<stop offset="0.265" stop-color="#2C2345"/>
<stop offset="1" stop-color="#271163"/>
</linearGradient>
</defs>
</svg>
